<mxfile host="app.diagrams.net" agent="Mozilla/5.0 (Windows NT 10.0; Win64; x64) AppleWebKit/537.36 (KHTML, like Gecko) Chrome/140.0.0.0 Safari/537.36 Edg/140.0.0.0" version="28.2.5">
  <diagram name="1 oldal" id="w_YrnWU6cCxEFmJ3EHcR">
    <mxGraphModel dx="3072" dy="786" grid="1" gridSize="10" guides="1" tooltips="1" connect="1" arrows="1" fold="1" page="1" pageScale="1" pageWidth="827" pageHeight="1169" math="0" shadow="0">
      <root>
        <mxCell id="0" />
        <mxCell id="1" parent="0" />
        <mxCell id="PdKmyuPp4vx_6HuO79C--1" value="Vendéglátás" style="ellipse;whiteSpace=wrap;html=1;" vertex="1" parent="1">
          <mxGeometry x="350" y="30" width="120" height="80" as="geometry" />
        </mxCell>
        <mxCell id="PdKmyuPp4vx_6HuO79C--2" value="Főszakács" style="ellipse;whiteSpace=wrap;html=1;" vertex="1" parent="1">
          <mxGeometry x="20" y="130" width="120" height="80" as="geometry" />
        </mxCell>
        <mxCell id="PdKmyuPp4vx_6HuO79C--3" value="Vendég" style="ellipse;whiteSpace=wrap;html=1;" vertex="1" parent="1">
          <mxGeometry x="470" y="160" width="120" height="80" as="geometry" />
        </mxCell>
        <mxCell id="PdKmyuPp4vx_6HuO79C--4" value="Étterem" style="ellipse;whiteSpace=wrap;html=1;" vertex="1" parent="1">
          <mxGeometry x="-540" y="120" width="120" height="80" as="geometry" />
        </mxCell>
        <mxCell id="PdKmyuPp4vx_6HuO79C--5" value="gyakornok" style="ellipse;whiteSpace=wrap;html=1;" vertex="1" parent="1">
          <mxGeometry x="294" y="160" width="120" height="80" as="geometry" />
        </mxCell>
        <mxCell id="PdKmyuPp4vx_6HuO79C--6" value="Rendelés" style="ellipse;whiteSpace=wrap;html=1;" vertex="1" parent="1">
          <mxGeometry x="670" y="150" width="120" height="80" as="geometry" />
        </mxCell>
        <mxCell id="PdKmyuPp4vx_6HuO79C--7" value="Ekód" style="rhombus;whiteSpace=wrap;html=1;" vertex="1" parent="1">
          <mxGeometry x="-890" y="170" width="80" height="80" as="geometry" />
        </mxCell>
        <mxCell id="PdKmyuPp4vx_6HuO79C--8" value="csillag&amp;nbsp;" style="ellipse;whiteSpace=wrap;html=1;" vertex="1" parent="1">
          <mxGeometry x="-220" y="240" width="120" height="80" as="geometry" />
        </mxCell>
        <mxCell id="PdKmyuPp4vx_6HuO79C--9" value="cím" style="ellipse;whiteSpace=wrap;html=1;" vertex="1" parent="1">
          <mxGeometry x="-540" y="240" width="120" height="80" as="geometry" />
        </mxCell>
        <mxCell id="PdKmyuPp4vx_6HuO79C--10" value="Név" style="ellipse;whiteSpace=wrap;html=1;" vertex="1" parent="1">
          <mxGeometry x="-840" y="240" width="120" height="80" as="geometry" />
        </mxCell>
        <mxCell id="PdKmyuPp4vx_6HuO79C--11" value="utca" style="ellipse;whiteSpace=wrap;html=1;" vertex="1" parent="1">
          <mxGeometry x="-540" y="430" width="120" height="80" as="geometry" />
        </mxCell>
        <mxCell id="PdKmyuPp4vx_6HuO79C--12" value="város" style="ellipse;whiteSpace=wrap;html=1;" vertex="1" parent="1">
          <mxGeometry x="-680" y="430" width="120" height="80" as="geometry" />
        </mxCell>
        <mxCell id="PdKmyuPp4vx_6HuO79C--13" value="irányítószám" style="ellipse;whiteSpace=wrap;html=1;" vertex="1" parent="1">
          <mxGeometry x="-390" y="430" width="120" height="80" as="geometry" />
        </mxCell>
        <mxCell id="PdKmyuPp4vx_6HuO79C--15" value="" style="endArrow=none;html=1;rounded=0;entryX=0;entryY=0;entryDx=0;entryDy=0;exitX=0.5;exitY=1;exitDx=0;exitDy=0;" edge="1" parent="1" source="PdKmyuPp4vx_6HuO79C--4">
          <mxGeometry width="50" height="50" relative="1" as="geometry">
            <mxPoint x="-240" y="360" as="sourcePoint" />
            <mxPoint x="-202.42640687119274" y="251.71572875253833" as="targetPoint" />
          </mxGeometry>
        </mxCell>
        <mxCell id="PdKmyuPp4vx_6HuO79C--16" value="" style="endArrow=none;html=1;rounded=0;entryX=0.5;entryY=0;entryDx=0;entryDy=0;exitX=0.5;exitY=1;exitDx=0;exitDy=0;" edge="1" parent="1" source="PdKmyuPp4vx_6HuO79C--4" target="PdKmyuPp4vx_6HuO79C--9">
          <mxGeometry width="50" height="50" relative="1" as="geometry">
            <mxPoint x="-240" y="360" as="sourcePoint" />
            <mxPoint x="-190" y="310" as="targetPoint" />
          </mxGeometry>
        </mxCell>
        <mxCell id="PdKmyuPp4vx_6HuO79C--17" value="" style="endArrow=none;html=1;rounded=0;exitX=0.5;exitY=0;exitDx=0;exitDy=0;entryX=0.5;entryY=1;entryDx=0;entryDy=0;" edge="1" parent="1" source="PdKmyuPp4vx_6HuO79C--10" target="PdKmyuPp4vx_6HuO79C--4">
          <mxGeometry width="50" height="50" relative="1" as="geometry">
            <mxPoint x="-240" y="360" as="sourcePoint" />
            <mxPoint x="-190" y="310" as="targetPoint" />
          </mxGeometry>
        </mxCell>
        <mxCell id="PdKmyuPp4vx_6HuO79C--18" value="" style="endArrow=none;html=1;rounded=0;exitX=0.5;exitY=0;exitDx=0;exitDy=0;entryX=0.008;entryY=0.613;entryDx=0;entryDy=0;entryPerimeter=0;" edge="1" parent="1" source="PdKmyuPp4vx_6HuO79C--7" target="PdKmyuPp4vx_6HuO79C--4">
          <mxGeometry width="50" height="50" relative="1" as="geometry">
            <mxPoint x="-240" y="360" as="sourcePoint" />
            <mxPoint x="-190" y="310" as="targetPoint" />
          </mxGeometry>
        </mxCell>
        <mxCell id="PdKmyuPp4vx_6HuO79C--19" value="" style="endArrow=none;html=1;rounded=0;exitX=0.5;exitY=0;exitDx=0;exitDy=0;entryX=0.5;entryY=1;entryDx=0;entryDy=0;" edge="1" parent="1" source="PdKmyuPp4vx_6HuO79C--11" target="PdKmyuPp4vx_6HuO79C--9">
          <mxGeometry width="50" height="50" relative="1" as="geometry">
            <mxPoint x="-240" y="360" as="sourcePoint" />
            <mxPoint x="-190" y="310" as="targetPoint" />
          </mxGeometry>
        </mxCell>
        <mxCell id="PdKmyuPp4vx_6HuO79C--20" value="" style="endArrow=none;html=1;rounded=0;exitX=0.5;exitY=1;exitDx=0;exitDy=0;entryX=0.5;entryY=0;entryDx=0;entryDy=0;" edge="1" parent="1" source="PdKmyuPp4vx_6HuO79C--9" target="PdKmyuPp4vx_6HuO79C--12">
          <mxGeometry width="50" height="50" relative="1" as="geometry">
            <mxPoint x="-240" y="360" as="sourcePoint" />
            <mxPoint x="-190" y="310" as="targetPoint" />
          </mxGeometry>
        </mxCell>
        <mxCell id="PdKmyuPp4vx_6HuO79C--21" value="" style="endArrow=none;html=1;rounded=0;exitX=0.5;exitY=0;exitDx=0;exitDy=0;" edge="1" parent="1" source="PdKmyuPp4vx_6HuO79C--13">
          <mxGeometry width="50" height="50" relative="1" as="geometry">
            <mxPoint x="-690" y="280" as="sourcePoint" />
            <mxPoint x="-480" y="320" as="targetPoint" />
          </mxGeometry>
        </mxCell>
        <mxCell id="PdKmyuPp4vx_6HuO79C--22" value="" style="whiteSpace=wrap;html=1;aspect=fixed;" vertex="1" parent="1">
          <mxGeometry x="-200" y="410" width="80" height="80" as="geometry" />
        </mxCell>
        <mxCell id="PdKmyuPp4vx_6HuO79C--23" value="" style="whiteSpace=wrap;html=1;aspect=fixed;" vertex="1" parent="1">
          <mxGeometry x="-820" y="410" width="80" height="80" as="geometry" />
        </mxCell>
        <mxCell id="PdKmyuPp4vx_6HuO79C--24" value="" style="endArrow=none;html=1;rounded=0;exitX=0.5;exitY=0;exitDx=0;exitDy=0;entryX=0.5;entryY=1;entryDx=0;entryDy=0;" edge="1" parent="1" source="PdKmyuPp4vx_6HuO79C--22">
          <mxGeometry width="50" height="50" relative="1" as="geometry">
            <mxPoint x="-240" y="360" as="sourcePoint" />
            <mxPoint x="-160" y="320" as="targetPoint" />
          </mxGeometry>
        </mxCell>
        <mxCell id="PdKmyuPp4vx_6HuO79C--25" value="" style="endArrow=none;html=1;rounded=0;entryX=0.5;entryY=1;entryDx=0;entryDy=0;exitX=0.5;exitY=0;exitDx=0;exitDy=0;" edge="1" parent="1" source="PdKmyuPp4vx_6HuO79C--23" target="PdKmyuPp4vx_6HuO79C--10">
          <mxGeometry width="50" height="50" relative="1" as="geometry">
            <mxPoint x="-240" y="360" as="sourcePoint" />
            <mxPoint x="-190" y="310" as="targetPoint" />
          </mxGeometry>
        </mxCell>
        <mxCell id="PdKmyuPp4vx_6HuO79C--26" value="" style="whiteSpace=wrap;html=1;aspect=fixed;" vertex="1" parent="1">
          <mxGeometry x="-660" y="600" width="80" height="80" as="geometry" />
        </mxCell>
        <mxCell id="PdKmyuPp4vx_6HuO79C--27" value="" style="endArrow=none;html=1;rounded=0;entryX=0.5;entryY=1;entryDx=0;entryDy=0;exitX=0.5;exitY=0;exitDx=0;exitDy=0;" edge="1" parent="1" source="PdKmyuPp4vx_6HuO79C--26">
          <mxGeometry width="50" height="50" relative="1" as="geometry">
            <mxPoint x="-80" y="550" as="sourcePoint" />
            <mxPoint x="-620" y="510" as="targetPoint" />
          </mxGeometry>
        </mxCell>
        <mxCell id="PdKmyuPp4vx_6HuO79C--28" value="" style="whiteSpace=wrap;html=1;aspect=fixed;" vertex="1" parent="1">
          <mxGeometry x="-520" y="600" width="80" height="80" as="geometry" />
        </mxCell>
        <mxCell id="PdKmyuPp4vx_6HuO79C--29" value="" style="endArrow=none;html=1;rounded=0;entryX=0.5;entryY=1;entryDx=0;entryDy=0;exitX=0.5;exitY=0;exitDx=0;exitDy=0;" edge="1" parent="1" source="PdKmyuPp4vx_6HuO79C--28">
          <mxGeometry width="50" height="50" relative="1" as="geometry">
            <mxPoint x="60" y="550" as="sourcePoint" />
            <mxPoint x="-480" y="510" as="targetPoint" />
          </mxGeometry>
        </mxCell>
        <mxCell id="PdKmyuPp4vx_6HuO79C--30" value="" style="whiteSpace=wrap;html=1;aspect=fixed;" vertex="1" parent="1">
          <mxGeometry x="-370" y="590" width="80" height="80" as="geometry" />
        </mxCell>
        <mxCell id="PdKmyuPp4vx_6HuO79C--31" value="" style="endArrow=none;html=1;rounded=0;entryX=0.5;entryY=1;entryDx=0;entryDy=0;exitX=0.5;exitY=0;exitDx=0;exitDy=0;" edge="1" parent="1" source="PdKmyuPp4vx_6HuO79C--30">
          <mxGeometry width="50" height="50" relative="1" as="geometry">
            <mxPoint x="210" y="540" as="sourcePoint" />
            <mxPoint x="-330" y="500" as="targetPoint" />
          </mxGeometry>
        </mxCell>
        <mxCell id="PdKmyuPp4vx_6HuO79C--32" value="" style="endArrow=none;html=1;rounded=0;exitX=0.5;exitY=1;exitDx=0;exitDy=0;entryX=0.5;entryY=0;entryDx=0;entryDy=0;" edge="1" parent="1" source="PdKmyuPp4vx_6HuO79C--1" target="PdKmyuPp4vx_6HuO79C--2">
          <mxGeometry width="50" height="50" relative="1" as="geometry">
            <mxPoint x="-140" y="410" as="sourcePoint" />
            <mxPoint x="-90" y="360" as="targetPoint" />
          </mxGeometry>
        </mxCell>
        <mxCell id="PdKmyuPp4vx_6HuO79C--33" value="" style="endArrow=none;html=1;rounded=0;exitX=0.5;exitY=0;exitDx=0;exitDy=0;entryX=0.5;entryY=1;entryDx=0;entryDy=0;" edge="1" parent="1" source="PdKmyuPp4vx_6HuO79C--4" target="PdKmyuPp4vx_6HuO79C--1">
          <mxGeometry width="50" height="50" relative="1" as="geometry">
            <mxPoint x="-140" y="410" as="sourcePoint" />
            <mxPoint x="-90" y="360" as="targetPoint" />
          </mxGeometry>
        </mxCell>
        <mxCell id="PdKmyuPp4vx_6HuO79C--34" value="" style="endArrow=none;html=1;rounded=0;entryX=0.5;entryY=1;entryDx=0;entryDy=0;exitX=0.5;exitY=0;exitDx=0;exitDy=0;" edge="1" parent="1" source="PdKmyuPp4vx_6HuO79C--3" target="PdKmyuPp4vx_6HuO79C--1">
          <mxGeometry width="50" height="50" relative="1" as="geometry">
            <mxPoint x="450" y="110" as="sourcePoint" />
            <mxPoint x="500" y="60" as="targetPoint" />
          </mxGeometry>
        </mxCell>
        <mxCell id="PdKmyuPp4vx_6HuO79C--35" value="" style="endArrow=none;html=1;rounded=0;entryX=0.5;entryY=1;entryDx=0;entryDy=0;exitX=0.5;exitY=0;exitDx=0;exitDy=0;" edge="1" parent="1" source="PdKmyuPp4vx_6HuO79C--6" target="PdKmyuPp4vx_6HuO79C--1">
          <mxGeometry width="50" height="50" relative="1" as="geometry">
            <mxPoint x="450" y="110" as="sourcePoint" />
            <mxPoint x="500" y="60" as="targetPoint" />
          </mxGeometry>
        </mxCell>
        <mxCell id="PdKmyuPp4vx_6HuO79C--36" value="" style="endArrow=none;html=1;rounded=0;exitX=0.5;exitY=1;exitDx=0;exitDy=0;entryX=0.5;entryY=0;entryDx=0;entryDy=0;" edge="1" parent="1" source="PdKmyuPp4vx_6HuO79C--1" target="PdKmyuPp4vx_6HuO79C--5">
          <mxGeometry width="50" height="50" relative="1" as="geometry">
            <mxPoint x="450" y="110" as="sourcePoint" />
            <mxPoint x="500" y="60" as="targetPoint" />
          </mxGeometry>
        </mxCell>
        <mxCell id="PdKmyuPp4vx_6HuO79C--37" value="" style="rhombus;whiteSpace=wrap;html=1;" vertex="1" parent="1">
          <mxGeometry x="-120" y="190" width="80" height="80" as="geometry" />
        </mxCell>
        <mxCell id="PdKmyuPp4vx_6HuO79C--38" value="" style="rhombus;whiteSpace=wrap;html=1;" vertex="1" parent="1">
          <mxGeometry x="230" y="210" width="80" height="80" as="geometry" />
        </mxCell>
        <mxCell id="PdKmyuPp4vx_6HuO79C--41" value="" style="ellipse;whiteSpace=wrap;html=1;" vertex="1" parent="1">
          <mxGeometry x="-10" y="310" width="120" height="80" as="geometry" />
        </mxCell>
        <mxCell id="PdKmyuPp4vx_6HuO79C--42" value="" style="endArrow=none;html=1;rounded=0;exitX=0.5;exitY=0;exitDx=0;exitDy=0;entryX=0.433;entryY=1.025;entryDx=0;entryDy=0;entryPerimeter=0;" edge="1" parent="1" source="PdKmyuPp4vx_6HuO79C--41" target="PdKmyuPp4vx_6HuO79C--2">
          <mxGeometry width="50" height="50" relative="1" as="geometry">
            <mxPoint x="50" y="410" as="sourcePoint" />
            <mxPoint x="100" y="360" as="targetPoint" />
          </mxGeometry>
        </mxCell>
        <mxCell id="PdKmyuPp4vx_6HuO79C--44" value="" style="ellipse;whiteSpace=wrap;html=1;" vertex="1" parent="1">
          <mxGeometry x="126.96000000000001" y="320" width="120" height="80" as="geometry" />
        </mxCell>
        <mxCell id="PdKmyuPp4vx_6HuO79C--45" value="" style="endArrow=none;html=1;rounded=0;exitX=0.5;exitY=0;exitDx=0;exitDy=0;entryX=0.425;entryY=1;entryDx=0;entryDy=0;entryPerimeter=0;" edge="1" parent="1" source="PdKmyuPp4vx_6HuO79C--44" target="PdKmyuPp4vx_6HuO79C--2">
          <mxGeometry width="50" height="50" relative="1" as="geometry">
            <mxPoint x="186.96" y="420" as="sourcePoint" />
            <mxPoint x="109.99999999999997" y="150" as="targetPoint" />
          </mxGeometry>
        </mxCell>
        <mxCell id="PdKmyuPp4vx_6HuO79C--46" value="" style="ellipse;whiteSpace=wrap;html=1;" vertex="1" parent="1">
          <mxGeometry x="-150" y="328.47999999999996" width="120" height="80" as="geometry" />
        </mxCell>
        <mxCell id="PdKmyuPp4vx_6HuO79C--47" value="" style="endArrow=none;html=1;rounded=0;exitX=0.5;exitY=0;exitDx=0;exitDy=0;entryX=0.417;entryY=1;entryDx=0;entryDy=0;entryPerimeter=0;" edge="1" parent="1" source="PdKmyuPp4vx_6HuO79C--46" target="PdKmyuPp4vx_6HuO79C--2">
          <mxGeometry width="50" height="50" relative="1" as="geometry">
            <mxPoint x="-90" y="428.48" as="sourcePoint" />
            <mxPoint x="50" y="91.52" as="targetPoint" />
          </mxGeometry>
        </mxCell>
      </root>
    </mxGraphModel>
  </diagram>
</mxfile>
